HIERARCHY
ROOT Hips
{
	OFFSET 0.00000 0.00000 0.00000
	CHANNELS 6 Xposition Yposition Zposition Zrotation Yrotation Xrotation 
	JOINT LHipJoint
	{
		OFFSET 0 0 0
		CHANNELS 3 Zrotation Yrotation Xrotation
		JOINT LeftHip
		{
			OFFSET 1.43652 -1.81092 0.91346
			CHANNELS 3 Zrotation Yrotation Xrotation
			JOINT LeftKnee
			{
				OFFSET 2.45984 -6.75837 0.00000
				CHANNELS 3 Zrotation Yrotation Xrotation
				JOINT LeftAnkle
				{
					OFFSET 2.63718 -7.24559 0.00000
					CHANNELS 3 Zrotation Yrotation Xrotation
					JOINT LeftToe
					{
						OFFSET 0.19690 -0.54098 2.12239
						CHANNELS 3 Zrotation Yrotation Xrotation
						End Site
						{
							OFFSET 0.00000 -0.00000 1.10116
						}
					}
				}
			}
		}
	}
	JOINT RHipJoint
	{
		OFFSET 0 0 0
		CHANNELS 3 Zrotation Yrotation Xrotation
		JOINT RightHip
		{
			OFFSET -1.35116 -1.81092 0.91345
			CHANNELS 3 Zrotation Yrotation Xrotation
			JOINT RightKnee
			{
				OFFSET -2.55576 -7.02189 0.00000
				CHANNELS 3 Zrotation Yrotation Xrotation
				JOINT RightAnkle
				{
					OFFSET -2.61938 -7.19669 0.00000
					CHANNELS 3 Zrotation Yrotation Xrotation
					JOINT RightToe
					{
						OFFSET -0.32509 -0.89318 2.23646
						CHANNELS 3 Zrotation Yrotation Xrotation
						End Site
						{
							OFFSET -0.00000 -0.00000 1.19625
						}
					}
				}
			}
		}
	}
	JOINT lowerback
	{
		OFFSET 0 0 0
		CHANNELS 3 Zrotation Yrotation Xrotation
		JOINT Chest
		{
			OFFSET 0.05193 2.08077 -0.11958
			CHANNELS 3 Zrotation Yrotation Xrotation
			JOINT Chest2
			{
				OFFSET 0.04960 2.08447 0.01967
				CHANNELS 3 Zrotation Yrotation Xrotation
				JOINT lowerneck
				{
					OFFSET 0 0 0
					CHANNELS 3 Zrotation Yrotation Xrotation
					JOINT Neck
					{
						OFFSET -0.10699 1.82066 0.27584
						CHANNELS 3 Zrotation Yrotation Xrotation
						JOINT Head
						{
							OFFSET 0.14949 1.84747 -0.32279
							CHANNELS 3 Zrotation Yrotation Xrotation
							End Site
							{
								OFFSET 0.04969 1.88916 -0.14562
							}
						}
					}
				}
				JOINT LeftCollar
				{
					OFFSET 0 0 0
					CHANNELS 3 Zrotation Yrotation Xrotation
					JOINT LeftShoulder
					{
						OFFSET 3.73629 1.27211 -0.12847
CHANNELS 3 Zrotation Xrotation Yrotation
						JOINT LeftElbow
						{
OFFSET 0 -5.109950 0.000000
CHANNELS 3 Zrotation Xrotation Yrotation
							JOINT LeftWrist
							{
OFFSET 0 -3.212070 0.000000
CHANNELS 3 Zrotation Xrotation Yrotation
								JOINT lhand
								{
									OFFSET 0 0 0
CHANNELS 3 Zrotation Xrotation Yrotation
									JOINT LFingers
									{
OFFSET 0 -0.633490 0.000000
CHANNELS 3 Zrotation Xrotation Yrotation
										End Site
										{
OFFSET 0 -0.510740 0.000000
										}
									}
								}
								JOINT LThumb
								{
OFFSET 0 0.000000 0.000000
CHANNELS 3 Zrotation Xrotation Yrotation
									End Site
									{
OFFSET 0 -0.518530 0.518530
									}
								}
							}
						}
					}
				}
				JOINT RightCollar
				{
					OFFSET 0 0 0
					CHANNELS 3 Zrotation Yrotation Xrotation
					JOINT RightShoulder
					{
						OFFSET -3.70251 1.29541 -0.35354
CHANNELS 3 Zrotation Xrotation Yrotation
						JOINT RightElbow
						{
OFFSET 0 -5.251090 0.000000
CHANNELS 3 Zrotation Xrotation Yrotation
							JOINT RightWrist
							{
OFFSET 0 -3.283640 0.000000
CHANNELS 3 Zrotation Xrotation Yrotation
								JOINT rhand
								{
									OFFSET 0 0 0
CHANNELS 3 Zrotation Xrotation Yrotation
									JOINT RFingers
									{
OFFSET 0 -0.599740 0.000000
CHANNELS 3 Zrotation Xrotation Yrotation
										End Site
										{
OFFSET 0 -0.483530 0.000000
										}
									}
								}
								JOINT RThumb
								{
OFFSET 0 0.000000 0.000000
CHANNELS 3 Zrotation Xrotation Yrotation
									End Site
									{
OFFSET 0 -0.490910 0.490910
									}
								}
							}
						}
					}
				}
			}
		}
	}
}
MOTION
Frames: 5
Frame Time: 0.008333333333333333
8.767400 16.963300 -4.406900 -38.689400 -82.258100 40.888000 0.000000 0.000000 0.000000 -12.022300 -1.674300 -19.185200 5.208600 13.615000 41.716400 1.209600 3.389600 -22.247900 0.001400 -0.239400 -0.657700 0.000000 0.000000 0.000000 24.838700 10.354400 -16.526500 -5.179100 -13.582600 41.590600 -2.083500 0.582500 -27.159800 -0.388400 -4.002200 11.082900 3.684200 1.667700 4.654600 2.675300 2.497600 -0.924700 0.507600 1.176800 -3.528500 -2.888300 10.740200 -17.800900 2.825800 14.925000 18.579100 3.147600 7.123100 8.228900 0.000000 0.000000 0.000000 6.380600 4.466700 -70.449400 88.753500 -59.994100 58.920600 15.676200 -35.179700 -34.317700 0.000000 0.000000 0.000000 -7.125000 0.000000 0.000000 -21.647100 64.053400 10.227500 0.000000 0.000000 0.000000 -17.502900 4.984300 69.771800 -90.508600 -59.999000 -60.440400 -26.841400 -20.774900 -14.811100 0.000000 0.000000 0.000000 7.125000 0.000000 -0.000000 0.479600 13.473100 0.354700
8.768715 16.961971 -4.432688 -39.356344 -82.211116 41.526563 0.000000 0.000000 0.000000 -11.795133 -1.605371 -19.454575 5.302436 13.716424 42.113207 1.190961 3.424292 -22.108432 0.004428 -0.429967 -1.181449 0.000000 0.000000 0.000000 25.053605 10.366863 -16.484607 -5.165702 -13.568002 41.533743 -2.074918 0.546054 -27.113893 -0.384899 -3.983895 11.031464 3.743418 1.678340 4.717160 2.724809 2.518002 -0.896205 0.522633 1.185668 -3.533715 -2.892828 10.722472 -17.750638 2.818161 14.901073 18.565791 3.139298 7.111592 8.216863 0.000000 0.000000 0.000000 6.389638 4.313186 -70.690487 88.782977 -59.994414 58.946069 15.057353 -35.213577 -34.316687 0.000000 0.000000 0.000000 -7.125000 0.000000 0.000000 -22.331761 63.886404 10.479848 0.000000 0.000000 0.000000 -17.300633 4.997895 69.662943 -90.430106 -59.999322 -60.372511 -27.226042 -20.538078 -14.779447 0.000000 0.000000 0.000000 7.125000 0.000000 0.000000 0.217724 13.454263 0.161127
8.772333 16.961801 -4.461587 -39.954691 -82.164879 42.122546 0.000000 0.000000 0.000000 -11.532263 -1.518590 -19.810462 5.409172 13.830219 42.561587 1.181523 3.215877 -21.921581 0.003012 -0.337063 -0.926232 0.000000 0.000000 0.000000 25.273876 10.422382 -16.456453 -5.151063 -13.551905 41.471306 -2.063709 0.452568 -27.067880 -0.383592 -3.977461 11.013249 3.795232 1.686681 4.809938 2.733452 2.537223 -0.890210 0.498463 1.193360 -3.577754 -2.829437 10.727098 -17.760794 2.828747 14.889465 18.608962 3.135673 7.109833 8.237651 0.000000 0.000000 0.000000 6.394561 4.121872 -70.892428 88.674750 -59.993372 58.852288 14.631005 -35.249767 -34.420498 0.000000 0.000000 0.000000 -7.125000 0.000000 0.000000 -22.906046 63.866641 10.752578 0.000000 0.000000 0.000000 -17.028464 4.992340 69.576596 -90.308850 -59.999643 -60.267509 -27.492170 -20.211390 -14.708939 0.000000 0.000000 0.000000 7.125000 0.000000 0.000000 0.032141 13.494687 0.023749
8.778205 16.962957 -4.485553 -40.140951 -82.076706 42.324374 0.000000 0.000000 0.000000 -11.289461 -1.559146 -20.177615 5.518005 13.944302 43.014986 1.172174 2.946723 -21.707403 0.000122 -0.036752 -0.100927 0.000000 0.000000 0.000000 25.431602 10.321669 -16.526335 -5.138719 -13.538403 41.418693 -2.055456 0.504149 -26.997086 -0.392075 -4.020606 11.134563 3.841636 1.662780 4.888737 2.765163 2.512771 -0.882337 0.504837 1.179634 -3.614038 -2.785485 10.741551 -17.787191 2.837399 14.898043 18.675236 3.138484 7.115120 8.266957 0.000000 0.000000 0.000000 6.380957 3.931032 -71.127279 88.716495 -59.993778 58.888425 15.067637 -35.153494 -34.477581 0.000000 0.000000 0.000000 -7.125000 0.000000 0.000000 -22.483032 64.035370 10.632375 0.000000 0.000000 0.000000 -16.841994 4.909457 69.604249 -90.134914 -59.999922 -60.116848 -27.576604 -20.013538 -14.662669 0.000000 0.000000 0.000000 7.125000 0.000000 0.000000 -0.028979 13.533996 -0.021382
8.782735 16.962656 -4.509831 -40.416217 -82.021552 42.600214 0.000000 0.000000 0.000000 -11.070643 -1.568851 -20.526031 5.630839 14.060642 43.481217 1.160886 2.763214 -21.520704 0.000659 0.141944 0.390148 0.000000 0.000000 0.000000 25.583404 10.264837 -16.563545 -5.129863 -13.528591 41.380694 -2.047090 0.531018 -26.933315 -0.396192 -4.041603 11.193604 3.881657 1.657350 4.968422 2.782931 2.512185 -0.868836 0.498705 1.177955 -3.644095 -2.766144 10.742990 -17.787251 2.856031 14.891693 18.721861 3.143460 7.113784 8.282800 0.000000 0.000000 0.000000 6.375241 3.740784 -71.366116 88.717163 -59.993757 58.889017 15.324484 -35.116399 -34.511488 0.000000 0.000000 0.000000 -7.125000 0.000000 0.000000 -22.233053 64.135362 10.559854 0.000000 0.000000 0.000000 -16.639527 4.847242 69.604285 -89.991463 -60.000000 -59.992589 -27.747313 -19.871354 -14.626087 0.000000 0.000000 0.000000 7.125000 0.000000 0.000000 -0.147405 13.550345 -0.108752
